<?xml version="1.0" standalone="no"?>
<svg xmlns:xlink="http://www.w3.org/1999/xlink" id="wave" style="transform:rotate(0deg); transition: 0.3s" viewBox="0 0 1440 140" version="1.1" xmlns="http://www.w3.org/2000/svg"><defs><linearGradient id="sw-gradient-0" x1="0" x2="0" y1="1" y2="0"><stop stop-color="rgba(87, 102, 255, 1)" offset="0%"/><stop stop-color="rgba(0, 0, 153, 1)" offset="100%"/></linearGradient></defs><path style="transform:translate(0, 0px); opacity:1" fill="url(#sw-gradient-0)" d="M0,56L60,65.3C120,75,240,93,360,100.3C480,107,600,103,720,86.3C840,70,960,42,1080,39.7C1200,37,1320,61,1440,67.7C1560,75,1680,65,1800,53.7C1920,42,2040,28,2160,30.3C2280,33,2400,51,2520,51.3C2640,51,2760,33,2880,35C3000,37,3120,61,3240,60.7C3360,61,3480,37,3600,30.3C3720,23,3840,33,3960,32.7C4080,33,4200,23,4320,28C4440,33,4560,51,4680,67.7C4800,84,4920,98,5040,107.3C5160,117,5280,121,5400,109.7C5520,98,5640,70,5760,58.3C5880,47,6000,51,6120,49C6240,47,6360,37,6480,44.3C6600,51,6720,75,6840,84C6960,93,7080,89,7200,88.7C7320,89,7440,93,7560,91C7680,89,7800,79,7920,81.7C8040,84,8160,98,8280,98C8400,98,8520,84,8580,77L8640,70L8640,140L8580,140C8520,140,8400,140,8280,140C8160,140,8040,140,7920,140C7800,140,7680,140,7560,140C7440,140,7320,140,7200,140C7080,140,6960,140,6840,140C6720,140,6600,140,6480,140C6360,140,6240,140,6120,140C6000,140,5880,140,5760,140C5640,140,5520,140,5400,140C5280,140,5160,140,5040,140C4920,140,4800,140,4680,140C4560,140,4440,140,4320,140C4200,140,4080,140,3960,140C3840,140,3720,140,3600,140C3480,140,3360,140,3240,140C3120,140,3000,140,2880,140C2760,140,2640,140,2520,140C2400,140,2280,140,2160,140C2040,140,1920,140,1800,140C1680,140,1560,140,1440,140C1320,140,1200,140,1080,140C960,140,840,140,720,140C600,140,480,140,360,140C240,140,120,140,60,140L0,140Z"/></svg>